# xmcd
#
# Track frame offsets: 
#        150
#        24595
#        45565
#        68340
#        88897
#        111142
#        132585
#        158157
#        180095
#        206385
#        228440
#        253687
#        281652
#
# Disc length: 4097 seconds
#
# Revision: 12
# Processed by: cddbd v1.5.2PL0 Copyright (c) Steve Scherf et al.
# Submitted via: ExactAudioCopyFreeDBPlugin 1.0
#
DISCID=a90fff0d
DTITLE=山崎まさよし - ONE KNIGHT STANDS disc1
DYEAR=2000
DGENRE=J-POP
TTITLE0=ステレオ
TTITLE1=Fat Mama
TTITLE2=六月の手紙
TTITLE3=ある朝の写真
TTITLE4=僕はここにいる
TTITLE5=砂時計
TTITLE6=名前のない鳥
TTITLE7=やわらかい月
TTITLE8=One more time, One more chance
TTITLE9=ツバメ
TTITLE10=カルテ
TTITLE11=水のない水槽
TTITLE12=Passage
EXTD=YEAR: 2000
EXTT0=
EXTT1=
EXTT2=
EXTT3=
EXTT4=
EXTT5=
EXTT6=
EXTT7=
EXTT8=
EXTT9=
EXTT10=
EXTT11=
EXTT12=
PLAYORDER=
